<svg width="42" height="34" viewBox="0 0 42 34" fill="none" xmlns="http://www.w3.org/2000/svg">
<path d="M6.80443 34C7.05959 34 7.22971 33.9269 7.39982 33.7806L13.9491 28.1505H27.2175C27.2175 28.1505 27.2176 28.9548 27.2176 26.9075L27.2175 28.1505C27.2175 27.7118 27.2177 26.6882 27.2177 26.6882C26.7073 26.6882 26.3671 26.9806 26.3671 27.4194H26.3662C26.3662 28.6624 27.2177 26.6882 27.2177 26.6882H13.6088C13.3537 26.6882 13.1836 26.7613 13.0135 26.9075L7.65498 31.514V27.4194C7.65498 26.9806 7.31476 26.6882 6.80443 26.6882H4.25277C2.80684 26.6882 1.70112 25.7376 1.70112 24.4946V8.4086C1.70112 7.16559 2.80684 6.21505 4.25277 6.21505C4.7631 6.21505 5.10333 5.92258 5.10333 5.48387C5.10333 5.04516 4.76311 4.75269 4.25278 4.75269C1.87123 4.75269 2.15509e-05 6.36129 2.15509e-05 8.4086V24.4946C2.15509e-05 26.5419 1.87123 28.1505 4.25277 28.1505H5.95388V33.2688C5.95388 33.5613 6.12399 33.8538 6.46421 33.9269C6.54926 34 6.71937 34 6.80443 34Z" fill="#888888"/>
<path d="M35.1956 29.2473C35.2807 29.2473 35.4508 29.2473 35.5358 29.1742C35.8761 29.1011 36.0462 28.8086 36.0462 28.5161V23.3979H37.7473C40.1288 23.3979 42 21.7892 42 19.7419V3.65591C42 1.6086 40.1288 0 37.7473 0H10.5296C8.14809 0 6.27688 1.6086 6.27688 3.65591V19.7419C6.27688 21.7892 8.14809 23.3979 10.5296 23.3979H28.051L34.6002 29.028C34.7703 29.1742 34.9404 29.2473 35.1956 29.2473ZM37.7473 1.46237C39.1932 1.46237 40.2989 2.4129 40.2989 3.65591V19.7419C40.2989 20.9849 39.1932 21.9355 37.7473 21.9355H35.1956C34.6853 21.9355 34.3451 22.228 34.3451 22.6667V26.7613L28.9866 22.1548C28.8165 22.0086 28.6464 21.9355 28.3912 21.9355H10.5296C9.0837 21.9355 7.97798 20.9849 7.97798 19.7419V3.65591C7.97798 2.4129 9.0837 1.46237 10.5296 1.46237H37.7473Z" fill="#888888"/>
</svg>
